<?xml version="1.0" encoding="utf-8"?>
<!-- Generator: Adobe Illustrator 24.0.1, SVG Export Plug-In . SVG Version: 6.00 Build 0)  -->
<svg version="1.1" id="Layer_1" xmlns="http://www.w3.org/2000/svg" xmlns:xlink="http://www.w3.org/1999/xlink" x="0px" y="0px"
	 viewBox="0 0 24 24" style="enable-background:new 0 0 24 24;" xml:space="preserve">
<style type="text/css">
	.st0{fill-rule:evenodd;clip-rule:evenodd;fill:#FFFFFF;}
</style>
<path class="st0" d="M7,16.5l1.5-0.7c1.8-0.8,2.9-0.3,4.3,0.2c1.7,0.7,2.4,0.9,3.1,1.2c1.3,0.5,0.7,2.2-0.6,1.8
	c-0.8-0.2-2.8-0.8-3.4-0.9c-0.6-0.2-0.9,0.6-0.3,0.8c1.1,0.4,2.7,0.8,3.5,1c0.8,0.2,1.3-0.1,1.9-0.6c0.9-0.7,3-2.9,3-2.9
	c0.8-0.8,2-0.1,2,0.7c0,0.2-0.1,0.5-0.3,0.7c-2.3,2.8-3.1,3.6-4.6,5.2c-0.6,0.7-1.3,1-2.2,1c-0.4,0-0.9-0.1-1.4-0.2
	c-1.8-0.6-4.2-1.3-6.5-1.6C7,22.1,7,16.5,7,16.5z M6,23H2v-8h4V23z M7,15.2v-1.7c0-1.6,0.1-2.4,1.9-2.9c2-0.5,4.3-0.9,3.4-2.6
	c-2.8-5.1-0.8-8,2.2-8c2.9,0,4.9,2.8,2.2,8c-0.9,1.7,1.4,2.1,3.4,2.6c1.8,0.4,1.9,1.3,1.9,2.9c0,0.1,0,1.2,0,1.7
	c-0.5-0.3-1.4-0.6-2.2,0.1c-0.5,0.5-0.6,0.5-1.8,1.6c-1.8-0.8-4.5-1.9-6.2-2.5c-0.9-0.3-2-0.3-3,0.1C8.7,14.5,7,15.2,7,15.2z"/>
</svg>
