<?xml version="1.0" encoding="utf-8"?>
<!-- Generator: Adobe Illustrator 24.0.1, SVG Export Plug-In . SVG Version: 6.00 Build 0)  -->
<svg version="1.1" id="Layer_1" xmlns="http://www.w3.org/2000/svg" xmlns:xlink="http://www.w3.org/1999/xlink" x="0px" y="0px"
	 viewBox="0 0 40 40" style="enable-background:new 0 0 40 40;" xml:space="preserve">
<style type="text/css">
	.st0{fill:url(#SVGID_1_);}
	.st1{fill:url(#SVGID_2_);}
	.st2{fill:url(#SVGID_3_);}
	.st3{fill:url(#SVGID_4_);}
</style>
<linearGradient id="SVGID_1_" gradientUnits="userSpaceOnUse" x1="18.9626" y1="32.1698" x2="28.4626" y2="12.1697" gradientTransform="matrix(1 0 0 -1 0 42)">
	<stop  offset="3.076030e-02" style="stop-color:#6860ED"/>
	<stop  offset="1" style="stop-color:#1BC5EB"/>
</linearGradient>
<path class="st0" d="M22.9,31.2h8.8L26.5,24c2.9-1.4,4.6-3.9,4.6-7.3C31.1,11.4,26.8,8,20,8c-4.6,0,1.1,0-3.5,0l0,17.4h2.2
	L22.9,31.2z M22.8,16.7c0,1.7-1.1,2.7-3.3,2.7h-3V14h3C21.8,14,22.8,15.1,22.8,16.7z"/>
<radialGradient id="SVGID_2_" cx="-100.0991" cy="147.0287" r="1" gradientTransform="matrix(18.3538 31.5 31.5 -18.3538 -2785.8113 5856.1543)" gradientUnits="userSpaceOnUse">
	<stop  offset="0" style="stop-color:#5560E4"/>
	<stop  offset="0.7352" style="stop-color:#4292EC"/>
	<stop  offset="1" style="stop-color:#1BC5EB"/>
</radialGradient>
<path class="st1" d="M3.4,1.4l4.2,4.2h24.6c1.1,0,2,0.9,2,2v24.8c0,1.1-0.9,2-2,2h-4.3V40h4c4.4,0,8-3.6,8-8V8c0-4.4-3.6-8-8-8h-24
	C6.2,0,4.7,0.5,3.4,1.4z"/>
<linearGradient id="SVGID_3_" gradientUnits="userSpaceOnUse" x1="12.5" y1="38.6274" x2="12.5" y2="6" gradientTransform="matrix(1 0 0 -1 0 42)">
	<stop  offset="0" style="stop-color:#813FEE"/>
	<stop  offset="1" style="stop-color:#8E2EEE"/>
</linearGradient>
<path class="st2" d="M1.4,3.5C0.5,4.8,0,6.3,0,8v24c0,4.4,3.6,8,8,8h17v-5.6H7.7c-1.1,0-2-0.9-2-2V7.8L1.4,3.5z"/>
<linearGradient id="SVGID_4_" gradientUnits="userSpaceOnUse" x1="12.785" y1="34" x2="12.785" y2="10.8" gradientTransform="matrix(1 0 0 -1 0 42)">
	<stop  offset="0.2656" style="stop-color:#6860ED"/>
	<stop  offset="1" style="stop-color:#8E2EEE"/>
</linearGradient>
<rect x="9" y="8" class="st3" width="7.6" height="23.2"/>
</svg>
